# xmcd
#
# Track frame offsets:
# 150
# 19258
# 31102
# 44173
# 61399
# 78143
# 109237
# 129029
# 143161
# 169098
#
# Disc length: 2458 seconds
#
#
# Revision: 0
# Processed by: cddbd v1.5.2PL0 Copyright (c) Steve Scherf et al.
# Submitted via: Nero 7, 11, 10, 0 
#
DISCID=7d09980a
DTITLE=Rex Miller - It's About Time
DYEAR=1981
DGENRE=Blues
TTITLE0=I Spent The Rent
TTITLE1=The Lights Are On
TTITLE2=Hey Everybody
TTITLE3=Not In Her Husband's Way
TTITLE4=Left To Write
TTITLE5=Hooma Boppa Shooma
TTITLE6=No Tears
TTITLE7=I'm Amazed
TTITLE8=U.F.J.
TTITLE9=Gotta Travel On
EXTD=
EXTT0=I Spent The Rent
EXTT1=The Lights Are On
EXTT2=Hey Everybody
EXTT3=Not In Her Husband's Way
EXTT4=Left To Write
EXTT5=Hooma Boppa Shooma
EXTT6=No Tears
EXTT7=I'm Amazed
EXTT8=U.F.J.
EXTT9=Gotta Travel On
PLAYORDER=
